<?xml version="1.0" encoding="UTF-8"?>
<svg id="Layer_1" data-name="Layer 1" xmlns="http://www.w3.org/2000/svg" version="1.1" viewBox="0 0 250 250">
  <defs>
    <style>
      .cls-1 {
        fill: none;
      }

      .cls-1, .cls-2, .cls-3 {
        stroke-width: 0px;
      }

      .cls-2 {
        fill: #81cccd;
      }

      .cls-3 {
        fill: #02999a;
      }
    </style>
  </defs>
  <path class="cls-1" d="M91.1,64h-.1s34.9,46.5,34.9,46.5c.1.2.2.3.3.5,0-.2-.2-.5-.4-.7l-34.7-46.3Z"/>
  <polygon class="cls-1" points="40.3 47.1 123.9 32 123.9 32 40.2 47.1 86.6 58.6 40.3 47.1"/>
  <polygon class="cls-1" points="77.9 125.5 77.9 125.5 202.1 224.7 202 224.6 188.3 213.6 77.9 125.5"/>
  <polygon class="cls-1" points="71.7 120.7 71.7 120.7 17.4 98.6 17.2 98.6 71.7 120.7"/>
  <path class="cls-1" d="M186.4,48.4l32.7,72.5-43.6,9.5c-1.7.4-2.8,1.7-2.7,3.1,0-1.4,1.1-2.6,2.7-3h0c0,0,43.6-9.4,43.6-9.4l-32.8-72.7h0Z"/>
  <path class="cls-3" d="M67.9,125.6l-44.8-18.2,106.8,94.8,61.5,22.1-123.1-98.3-.4-.4Z"/>
  <polygon class="cls-3" points="112.1 111.3 52.6 91.6 52.5 91.7 17.4 98.6 71.7 120.7 112.1 111.3"/>
  <polygon class="cls-3" points="113.6 105.4 82.2 63.6 33.3 51.5 55.5 86.2 113.6 105.4"/>
  <polygon class="cls-3" points="86.6 58.6 173.6 44.4 123.9 32 40.3 47.1 86.6 58.6"/>
  <path class="cls-2" d="M175.5,130.4l43.6-9.5-32.7-72.5-95.3,15.6,34.7,46.3c.2.2.3.4.4.7.3.7.4,1.4,0,2.1-.4.8-1.3,1.5-2.4,1.7l-45.9,10.7,110.4,88.1,13.8,11-29.2-90.5c0-.2,0-.4-.1-.6,0-1.3,1-2.6,2.7-3.1Z"/>
</svg>