<svg width="126" height="24" viewBox="0 0 126 24" fill="none" xmlns="http://www.w3.org/2000/svg">
<path d="M10.5001 10.83L15.6201 7.87002V2.01002C15.6201 1.78002 15.3701 1.63002 15.1701 1.75002L8.42009 5.65002C8.33009 5.70002 8.27009 5.80002 8.27009 5.91002V9.54002L3.04009 6.52002C2.84009 6.40002 2.59009 6.55002 2.59009 6.78002V16.68C2.59009 16.79 2.65009 16.89 2.74009 16.94L10.5001 21.42V10.83Z" fill="#02999A"/>
<path d="M12 22.29L21.26 16.94C21.35 16.89 21.41 16.79 21.41 16.68V6.78004C21.41 6.55004 21.16 6.40004 20.96 6.52004L12 11.7V22.3V22.29Z" fill="#81CCCD"/>
<path d="M29.748 11.948C29.748 10.9847 29.9067 10.1177 30.224 9.347C30.5527 8.565 31.0003 7.902 31.567 7.358C32.145 6.814 32.825 6.39467 33.607 6.1C34.4003 5.80533 35.2617 5.658 36.191 5.658C37.1317 5.658 37.9987 5.80533 38.792 6.1C39.5853 6.39467 40.271 6.814 40.849 7.358C41.427 7.902 41.8747 8.565 42.192 9.347C42.5207 10.1177 42.685 10.9847 42.685 11.948C42.685 12.8887 42.5207 13.75 42.192 14.532C41.8747 15.3027 41.427 15.9713 40.849 16.538C40.271 17.0933 39.5853 17.5297 38.792 17.847C37.9987 18.153 37.1317 18.306 36.191 18.306C35.2617 18.306 34.4003 18.153 33.607 17.847C32.825 17.5297 32.145 17.0933 31.567 16.538C31.0003 15.9713 30.5527 15.3027 30.224 14.532C29.9067 13.75 29.748 12.8887 29.748 11.948ZM32.077 11.948C32.077 12.594 32.1733 13.189 32.366 13.733C32.57 14.2657 32.8533 14.7303 33.216 15.127C33.59 15.5237 34.0263 15.8353 34.525 16.062C35.035 16.2773 35.596 16.385 36.208 16.385C36.82 16.385 37.381 16.2773 37.891 16.062C38.401 15.8353 38.8373 15.5237 39.2 15.127C39.574 14.7303 39.8573 14.2657 40.05 13.733C40.254 13.189 40.356 12.594 40.356 11.948C40.356 11.3247 40.254 10.7467 40.05 10.214C39.8573 9.68133 39.5797 9.21667 39.217 8.82C38.8543 8.42333 38.418 8.11167 37.908 7.885C37.398 7.65833 36.8313 7.545 36.208 7.545C35.5847 7.545 35.018 7.65833 34.508 7.885C34.0093 8.11167 33.5787 8.42333 33.216 8.82C32.8533 9.21667 32.57 9.68133 32.366 10.214C32.1733 10.7467 32.077 11.3247 32.077 11.948ZM44.6508 9.84H46.6058V11.2H46.6398C46.8664 10.724 47.1838 10.3387 47.5918 10.044C47.9998 9.74933 48.4758 9.602 49.0198 9.602C49.0991 9.602 49.1841 9.60767 49.2748 9.619C49.3654 9.619 49.4448 9.63033 49.5128 9.653V11.523C49.3768 11.489 49.2578 11.4663 49.1558 11.455C49.0651 11.4437 48.9744 11.438 48.8838 11.438C48.4191 11.438 48.0451 11.523 47.7618 11.693C47.4784 11.863 47.2574 12.067 47.0988 12.305C46.9401 12.543 46.8324 12.7867 46.7758 13.036C46.7191 13.2853 46.6908 13.4837 46.6908 13.631V18H44.6508V9.84ZM58.8403 18H56.9023V16.776H56.8683C56.585 17.252 56.1883 17.6147 55.6783 17.864C55.1796 18.1133 54.6413 18.238 54.0633 18.238C53.44 18.238 52.879 18.1247 52.3803 17.898C51.893 17.66 51.4736 17.3483 51.1223 16.963C50.7823 16.5663 50.516 16.1073 50.3233 15.586C50.142 15.0533 50.0513 14.4867 50.0513 13.886C50.0513 13.2853 50.1476 12.7243 50.3403 12.203C50.533 11.6817 50.805 11.2283 51.1563 10.843C51.5076 10.4577 51.927 10.1573 52.4143 9.942C52.9016 9.71533 53.4343 9.602 54.0123 9.602C54.3863 9.602 54.7206 9.64733 55.0153 9.738C55.31 9.81733 55.565 9.91933 55.7803 10.044C56.007 10.1687 56.1996 10.3047 56.3583 10.452C56.517 10.5993 56.6473 10.741 56.7493 10.877H56.8003V5.148H58.8403V18ZM52.1253 13.886C52.1253 14.2033 52.1706 14.5207 52.2613 14.838C52.3633 15.1553 52.5106 15.4387 52.7033 15.688C52.896 15.9373 53.1396 16.1413 53.4343 16.3C53.729 16.4587 54.0746 16.538 54.4713 16.538C54.8453 16.538 55.1796 16.4643 55.4743 16.317C55.769 16.1583 56.0183 15.9543 56.2223 15.705C56.4376 15.4557 56.5963 15.178 56.6983 14.872C56.8116 14.5547 56.8683 14.2373 56.8683 13.92C56.8683 13.6027 56.8116 13.2853 56.6983 12.968C56.5963 12.6507 56.4376 12.3673 56.2223 12.118C56.0183 11.8687 55.769 11.6647 55.4743 11.506C55.1796 11.3473 54.8453 11.268 54.4713 11.268C54.0746 11.268 53.729 11.3473 53.4343 11.506C53.1396 11.6533 52.896 11.8517 52.7033 12.101C52.5106 12.3503 52.3633 12.6337 52.2613 12.951C52.1706 13.257 52.1253 13.5687 52.1253 13.886ZM67.0647 13.104C67.0647 12.8433 67.0251 12.594 66.9457 12.356C66.8777 12.118 66.7644 11.9083 66.6057 11.727C66.4471 11.5457 66.2431 11.404 65.9937 11.302C65.7557 11.1887 65.4724 11.132 65.1437 11.132C64.5317 11.132 64.0104 11.319 63.5797 11.693C63.1604 12.0557 62.9281 12.526 62.8827 13.104H67.0647ZM69.1047 14.022C69.1047 14.1127 69.1047 14.2033 69.1047 14.294C69.1047 14.3847 69.0991 14.4753 69.0877 14.566H62.8827C62.9054 14.8607 62.9791 15.1327 63.1037 15.382C63.2397 15.62 63.4154 15.8297 63.6307 16.011C63.8461 16.181 64.0897 16.317 64.3617 16.419C64.6337 16.521 64.9171 16.572 65.2117 16.572C65.7217 16.572 66.1524 16.4813 66.5037 16.3C66.8551 16.1073 67.1441 15.8467 67.3707 15.518L68.7307 16.606C67.9261 17.694 66.7587 18.238 65.2287 18.238C64.5941 18.238 64.0104 18.1417 63.4777 17.949C62.9451 17.745 62.4804 17.4617 62.0837 17.099C61.6984 16.7363 61.3924 16.2943 61.1657 15.773C60.9504 15.2403 60.8427 14.6397 60.8427 13.971C60.8427 13.3137 60.9504 12.7187 61.1657 12.186C61.3924 11.642 61.6984 11.183 62.0837 10.809C62.4691 10.4237 62.9224 10.129 63.4437 9.925C63.9764 9.70967 64.5487 9.602 65.1607 9.602C65.7274 9.602 66.2487 9.69833 66.7247 9.891C67.2121 10.0723 67.6314 10.35 67.9827 10.724C68.3341 11.0867 68.6061 11.5457 68.7987 12.101C69.0027 12.645 69.1047 13.2853 69.1047 14.022ZM71.0804 9.84H73.0354V11.2H73.0694C73.2961 10.724 73.6134 10.3387 74.0214 10.044C74.4294 9.74933 74.9054 9.602 75.4494 9.602C75.5288 9.602 75.6138 9.60767 75.7044 9.619C75.7951 9.619 75.8744 9.63033 75.9424 9.653V11.523C75.8064 11.489 75.6874 11.4663 75.5854 11.455C75.4948 11.4437 75.4041 11.438 75.3134 11.438C74.8488 11.438 74.4748 11.523 74.1914 11.693C73.9081 11.863 73.6871 12.067 73.5284 12.305C73.3698 12.543 73.2621 12.7867 73.2054 13.036C73.1488 13.2853 73.1204 13.4837 73.1204 13.631V18H71.0804V9.84ZM86.0618 8.786C85.7445 8.35533 85.3308 8.04367 84.8208 7.851C84.3108 7.647 83.8122 7.545 83.3248 7.545C82.7015 7.545 82.1348 7.65833 81.6248 7.885C81.1148 8.11167 80.6728 8.42333 80.2988 8.82C79.9362 9.21667 79.6528 9.68133 79.4488 10.214C79.2562 10.7467 79.1598 11.3247 79.1598 11.948C79.1598 12.6053 79.2562 13.206 79.4488 13.75C79.6415 14.294 79.9135 14.7643 80.2648 15.161C80.6275 15.5463 81.0582 15.8467 81.5568 16.062C82.0555 16.2773 82.6165 16.385 83.2398 16.385C83.8858 16.385 84.4582 16.2603 84.9568 16.011C85.4555 15.7503 85.8578 15.4103 86.1638 14.991L87.8808 16.198C87.3482 16.8667 86.6965 17.388 85.9258 17.762C85.1552 18.1247 84.2542 18.306 83.2228 18.306C82.2822 18.306 81.4152 18.153 80.6218 17.847C79.8398 17.5297 79.1655 17.0933 78.5988 16.538C78.0322 15.9713 77.5902 15.3027 77.2728 14.532C76.9555 13.75 76.7968 12.8887 76.7968 11.948C76.7968 10.9847 76.9612 10.1177 77.2898 9.347C77.6298 8.565 78.0888 7.902 78.6668 7.358C79.2562 6.814 79.9475 6.39467 80.7408 6.1C81.5342 5.80533 82.3955 5.658 83.3248 5.658C83.7102 5.658 84.1125 5.69767 84.5318 5.777C84.9512 5.845 85.3535 5.95833 85.7388 6.117C86.1242 6.26433 86.4868 6.45133 86.8268 6.678C87.1668 6.90467 87.4558 7.17667 87.6938 7.494L86.0618 8.786ZM89.1437 5.148H91.1837V18H89.1437V5.148ZM93.1826 13.886C93.1826 13.24 93.2959 12.6563 93.5226 12.135C93.7606 11.6023 94.0779 11.149 94.4746 10.775C94.8712 10.401 95.3416 10.112 95.8856 9.908C96.4296 9.704 97.0076 9.602 97.6196 9.602C98.2316 9.602 98.8096 9.704 99.3536 9.908C99.8976 10.112 100.368 10.401 100.765 10.775C101.161 11.149 101.473 11.6023 101.7 12.135C101.938 12.6563 102.057 13.24 102.057 13.886C102.057 14.532 101.938 15.1213 101.7 15.654C101.473 16.1867 101.161 16.6457 100.765 17.031C100.368 17.405 99.8976 17.6997 99.3536 17.915C98.8096 18.1303 98.2316 18.238 97.6196 18.238C97.0076 18.238 96.4296 18.1303 95.8856 17.915C95.3416 17.6997 94.8712 17.405 94.4746 17.031C94.0779 16.6457 93.7606 16.1867 93.5226 15.654C93.2959 15.1213 93.1826 14.532 93.1826 13.886ZM95.2566 13.886C95.2566 14.2033 95.3019 14.5207 95.3926 14.838C95.4946 15.1553 95.6419 15.4387 95.8346 15.688C96.0272 15.9373 96.2709 16.1413 96.5656 16.3C96.8602 16.4587 97.2116 16.538 97.6196 16.538C98.0276 16.538 98.3789 16.4587 98.6736 16.3C98.9682 16.1413 99.2119 15.9373 99.4046 15.688C99.5972 15.4387 99.7389 15.1553 99.8296 14.838C99.9316 14.5207 99.9826 14.2033 99.9826 13.886C99.9826 13.5687 99.9316 13.257 99.8296 12.951C99.7389 12.6337 99.5972 12.3503 99.4046 12.101C99.2119 11.8517 98.9682 11.6533 98.6736 11.506C98.3789 11.3473 98.0276 11.268 97.6196 11.268C97.2116 11.268 96.8602 11.3473 96.5656 11.506C96.2709 11.6533 96.0272 11.8517 95.8346 12.101C95.6419 12.3503 95.4946 12.6337 95.3926 12.951C95.3019 13.257 95.2566 13.5687 95.2566 13.886ZM111.481 18H109.543V16.691H109.509C109.327 17.099 109.01 17.4617 108.557 17.779C108.115 18.085 107.588 18.238 106.976 18.238C106.443 18.238 105.984 18.1473 105.599 17.966C105.225 17.7733 104.913 17.524 104.664 17.218C104.426 16.912 104.25 16.5607 104.137 16.164C104.023 15.7673 103.967 15.3593 103.967 14.94V9.84H106.007V14.362C106.007 14.6 106.024 14.8493 106.058 15.11C106.092 15.3707 106.165 15.6087 106.279 15.824C106.392 16.028 106.545 16.198 106.738 16.334C106.942 16.47 107.208 16.538 107.537 16.538C107.854 16.538 108.132 16.4757 108.37 16.351C108.619 16.215 108.817 16.045 108.965 15.841C109.123 15.637 109.242 15.4047 109.322 15.144C109.401 14.872 109.441 14.6 109.441 14.328V9.84H111.481V18ZM122.225 18H120.287V16.776H120.253C119.97 17.252 119.573 17.6147 119.063 17.864C118.564 18.1133 118.026 18.238 117.448 18.238C116.825 18.238 116.264 18.1247 115.765 17.898C115.278 17.66 114.858 17.3483 114.507 16.963C114.167 16.5663 113.901 16.1073 113.708 15.586C113.527 15.0533 113.436 14.4867 113.436 13.886C113.436 13.2853 113.532 12.7243 113.725 12.203C113.918 11.6817 114.19 11.2283 114.541 10.843C114.892 10.4577 115.312 10.1573 115.799 9.942C116.286 9.71533 116.819 9.602 117.397 9.602C117.771 9.602 118.105 9.64733 118.4 9.738C118.695 9.81733 118.95 9.91933 119.165 10.044C119.392 10.1687 119.584 10.3047 119.743 10.452C119.902 10.5993 120.032 10.741 120.134 10.877H120.185V5.148H122.225V18ZM115.51 13.886C115.51 14.2033 115.555 14.5207 115.646 14.838C115.748 15.1553 115.895 15.4387 116.088 15.688C116.281 15.9373 116.524 16.1413 116.819 16.3C117.114 16.4587 117.459 16.538 117.856 16.538C118.23 16.538 118.564 16.4643 118.859 16.317C119.154 16.1583 119.403 15.9543 119.607 15.705C119.822 15.4557 119.981 15.178 120.083 14.872C120.196 14.5547 120.253 14.2373 120.253 13.92C120.253 13.6027 120.196 13.2853 120.083 12.968C119.981 12.6507 119.822 12.3673 119.607 12.118C119.403 11.8687 119.154 11.6647 118.859 11.506C118.564 11.3473 118.23 11.268 117.856 11.268C117.459 11.268 117.114 11.3473 116.819 11.506C116.524 11.6533 116.281 11.8517 116.088 12.101C115.895 12.3503 115.748 12.6337 115.646 12.951C115.555 13.257 115.51 13.5687 115.51 13.886Z" fill="black"/>
</svg>